<?xml version="1.0" standalone="no"?>
<!DOCTYPE svg PUBLIC "-//W3C//DTD SVG 20010904//EN"
 "http://www.w3.org/TR/2001/REC-SVG-20010904/DTD/svg10.dtd">
<svg version="1.0" xmlns="http://www.w3.org/2000/svg"
 width="1000.000000pt" height="1000.000000pt" viewBox="0 0 1000.000000 1000.000000"
 preserveAspectRatio="xMidYMid meet">
<metadata>
Created by potrace 1.11, written by Peter Selinger 2001-2013
</metadata>
<g transform="translate(0.000000,1000.000000) scale(0.100000,-0.100000)"
fill="#000000" stroke="none">
<path d="M3865 8208 c-84 -22 -164 -103 -183 -185 -8 -36 -8 -111 0 -143 4
-14 16 -70 27 -125 34 -168 52 -248 56 -254 2 -4 6 -26 10 -51 4 -24 18 -94
31 -155 14 -60 27 -121 29 -135 9 -48 14 -72 19 -88 3 -9 8 -33 11 -52 3 -19
8 -42 10 -50 2 -8 7 -31 10 -50 3 -19 10 -51 15 -70 5 -19 12 -48 14 -65 3
-16 8 -41 11 -55 3 -14 10 -45 15 -70 5 -25 18 -85 29 -135 11 -49 22 -103 25
-120 3 -16 15 -73 26 -125 12 -52 23 -106 26 -120 2 -14 13 -65 24 -115 11
-49 35 -164 54 -255 32 -154 104 -496 111 -530 2 -8 20 -91 40 -185 20 -93 38
-179 40 -190 3 -11 12 -54 20 -95 8 -41 18 -86 20 -100 3 -14 10 -45 15 -70 5
-25 20 -97 34 -160 14 -63 27 -126 30 -140 2 -14 18 -90 35 -170 17 -80 33
-154 35 -165 8 -39 96 -456 115 -542 11 -49 23 -104 26 -123 3 -19 11 -55 16
-80 6 -25 12 -54 15 -65 2 -11 6 -31 9 -45 7 -35 14 -70 21 -105 2 -16 9 -46
14 -65 9 -35 48 -222 57 -270 2 -14 9 -45 14 -70 6 -25 12 -52 14 -60 2 -8 11
-51 20 -95 18 -82 32 -151 40 -195 3 -14 7 -34 10 -45 7 -32 35 -158 39 -180
23 -117 65 -176 156 -219 43 -20 60 -21 395 -21 l350 0 92 28 c242 71 414 248
546 557 36 83 87 258 122 414 6 26 50 288 60 356 2 14 7 43 10 65 4 22 20 121
36 220 16 99 34 208 41 242 10 57 6 116 -15 188 -4 13 -38 67 -52 80 -52 54
-152 81 -237 64 -105 -21 -173 -90 -196 -199 -13 -61 -49 -273 -57 -335 -3
-22 -7 -51 -10 -65 -3 -14 -7 -43 -10 -65 -3 -22 -7 -47 -10 -55 -2 -8 -7 -33
-10 -55 -2 -22 -7 -51 -9 -65 -3 -14 -7 -41 -10 -60 -3 -19 -7 -44 -10 -55 -2
-11 -7 -42 -10 -70 -28 -212 -137 -499 -225 -592 -71 -75 -91 -81 -298 -81
l-182 -1 -6 32 c-3 18 -10 50 -15 72 -10 44 -27 123 -95 450 -26 121 -57 272
-71 336 -32 149 -29 139 -52 249 -11 52 -30 140 -42 195 -12 55 -24 111 -26
125 -7 37 -59 286 -94 450 -17 80 -38 179 -46 220 -8 41 -19 91 -24 110 -5 19
-11 49 -13 65 -3 17 -12 60 -21 96 -8 37 -17 78 -20 90 -4 23 -45 219 -52 249
-1 8 -12 60 -23 115 -34 167 -61 298 -71 335 -5 19 -12 49 -14 65 -3 17 -8 39
-10 50 -2 11 -12 56 -21 100 -9 44 -19 87 -20 95 -2 8 -13 58 -23 110 -37 179
-53 255 -77 365 -13 61 -26 121 -29 135 -4 23 -32 158 -42 205 -3 11 -11 52
-19 90 -8 39 -24 115 -36 170 -11 55 -23 111 -25 124 -3 14 -7 27 -9 31 -2 4
-7 29 -11 56 -3 27 -8 52 -10 55 -2 4 -13 53 -24 109 -11 56 -22 105 -24 109
-2 3 -7 24 -10 46 -6 35 -36 187 -51 253 l-5 22 283 0 283 0 27 -147 c15 -82
29 -157 31 -168 10 -49 38 -202 42 -225 2 -14 9 -45 14 -70 5 -25 21 -106 34
-180 14 -74 28 -148 31 -165 3 -16 10 -55 16 -85 5 -30 12 -64 14 -75 2 -11 6
-38 10 -60 3 -22 8 -48 11 -57 3 -10 7 -30 10 -45 4 -30 16 -92 20 -108 2 -11
61 -324 74 -400 5 -27 12 -61 15 -75 2 -14 10 -52 15 -85 6 -33 15 -80 20
-105 5 -25 12 -58 15 -75 7 -43 13 -77 35 -190 11 -55 22 -111 24 -125 3 -14
19 -99 36 -190 17 -91 36 -192 41 -224 6 -33 12 -62 14 -65 1 -3 6 -24 9 -46
4 -22 15 -87 26 -145 11 -58 22 -118 24 -134 3 -16 10 -52 16 -80 5 -28 19
-98 31 -155 12 -62 30 -119 45 -142 53 -85 174 -133 275 -109 59 14 81 23 110
48 58 49 88 120 104 243 4 28 9 61 11 73 6 29 8 41 48 286 20 118 38 226 41
240 2 14 20 124 40 245 20 121 38 234 41 250 7 46 16 98 21 120 2 11 6 36 9
55 3 19 9 60 14 90 5 30 12 70 15 88 3 17 7 47 10 65 3 17 10 57 15 87 5 30
11 69 14 85 6 37 35 211 41 245 2 14 12 70 21 125 9 55 17 107 19 115 2 8 4
27 4 43 1 26 17 40 18 15 1 -12 6 -43 17 -93 7 -31 55 -267 60 -295 6 -32 43
-216 51 -255 4 -16 12 -61 20 -100 26 -136 29 -154 39 -195 3 -14 8 -36 10
-50 2 -14 7 -36 10 -50 3 -14 8 -36 10 -50 3 -14 7 -36 10 -50 3 -14 9 -41 12
-60 4 -19 8 -44 11 -55 2 -11 8 -42 13 -70 11 -54 11 -52 34 -165 8 -41 17
-86 20 -100 4 -21 17 -88 41 -208 2 -13 6 -31 9 -40 3 -9 7 -33 10 -52 3 -19
26 -136 51 -260 26 -124 49 -236 51 -250 3 -14 20 -101 39 -195 19 -93 36
-181 39 -195 2 -14 21 -106 41 -205 20 -99 38 -191 41 -205 87 -436 119 -583
145 -670 17 -58 33 -115 36 -128 3 -12 9 -25 14 -28 5 -3 9 -12 9 -20 0 -16
85 -194 121 -254 87 -145 264 -294 402 -339 139 -45 180 -50 482 -51 160 0
314 4 342 9 102 20 178 96 200 200 6 31 26 124 43 206 18 83 33 157 35 165 2
8 11 51 20 95 10 44 19 93 21 108 2 15 10 54 18 85 8 31 17 71 20 87 4 26 59
291 72 350 2 11 7 34 10 50 3 17 18 93 35 170 16 77 32 154 35 170 3 17 9 46
14 65 5 19 11 49 14 65 2 17 25 129 51 250 26 121 49 231 51 245 3 14 16 77
29 140 13 63 26 126 29 140 3 14 17 81 31 150 33 156 28 132 59 280 14 69 34
168 45 220 11 52 22 106 25 120 3 14 7 36 10 50 3 14 8 36 11 50 7 32 14 67
20 102 3 16 12 56 20 90 8 35 16 77 19 93 3 17 8 41 11 55 8 36 25 120 31 154
3 16 7 32 9 36 2 4 7 22 10 41 5 33 10 61 20 104 2 11 16 76 30 145 15 69 28
136 31 150 9 50 65 316 71 340 3 14 8 34 10 45 5 26 26 129 59 285 14 69 28
139 31 155 7 42 11 60 13 60 1 0 3 9 5 20 2 11 8 45 15 75 6 30 13 66 16 80 2
14 7 36 10 50 9 37 14 62 29 141 3 14 23 110 45 214 42 195 48 280 28 348 -15
50 -93 130 -145 149 -30 10 -162 13 -643 13 -593 0 -606 0 -650 -21 -48 -22
-104 -73 -125 -114 -10 -20 -43 -175 -69 -320 -2 -14 -12 -65 -21 -115 -10
-49 -19 -100 -21 -112 -7 -41 -14 -77 -25 -138 -6 -33 -13 -71 -15 -85 -3 -14
-9 -47 -14 -75 -5 -27 -11 -61 -14 -75 -2 -14 -15 -86 -29 -160 -14 -74 -28
-148 -31 -165 -3 -16 -7 -41 -10 -55 -3 -14 -7 -42 -10 -62 -3 -21 -10 -57
-15 -80 -5 -24 -12 -59 -15 -78 -3 -19 -19 -107 -35 -195 -37 -195 -40 -211
-47 -254 -3 -18 -7 -41 -9 -50 -1 -9 -10 -54 -19 -101 -9 -47 -18 -95 -20
-106 -2 -12 -7 -39 -10 -60 -4 -21 -8 -39 -9 -41 -2 -1 -12 52 -22 120 -10 67
-19 124 -20 127 -1 3 -5 28 -9 55 -4 28 -11 73 -16 100 -5 28 -12 70 -15 95
-3 25 -8 52 -10 60 -2 8 -6 33 -10 55 -3 22 -12 78 -20 125 -8 47 -17 103 -20
125 -3 23 -7 52 -10 65 -3 13 -7 42 -10 65 -4 22 -21 132 -40 245 -19 113 -36
223 -40 245 -3 22 -10 65 -15 95 -5 30 -12 73 -15 95 -6 40 -20 124 -30 180
-3 17 -10 59 -15 95 -34 212 -42 260 -51 305 -13 64 -29 105 -40 105 -5 0 -9
6 -9 13 0 22 -93 76 -151 88 -173 35 -313 -90 -304 -271 2 -36 8 -94 14 -130
15 -80 14 -79 45 -275 14 -88 28 -171 31 -185 2 -13 7 -42 10 -65 3 -22 17
-110 31 -195 14 -85 27 -164 29 -175 10 -74 20 -136 29 -185 3 -14 8 -43 11
-65 3 -22 8 -51 10 -65 2 -14 11 -70 20 -125 22 -142 25 -157 30 -185 2 -14 7
-45 10 -70 3 -25 8 -52 10 -60 3 -8 7 -39 10 -69 3 -29 7 -56 9 -60 2 -3 7
-30 11 -60 4 -30 9 -63 11 -75 14 -65 42 -251 39 -254 -2 -3 0 -12 4 -21 5 -9
11 -38 15 -66 3 -27 8 -61 10 -75 3 -14 7 -41 10 -60 3 -19 17 -107 32 -195
14 -88 27 -169 29 -180 2 -11 8 -54 14 -95 6 -41 13 -82 16 -90 2 -8 6 -37 10
-64 3 -27 13 -87 21 -135 18 -103 21 -124 29 -176 3 -23 8 -52 10 -65 3 -14 8
-43 10 -65 30 -233 62 -308 157 -360 26 -14 51 -26 55 -25 5 0 27 -2 50 -6 70
-10 147 19 203 76 42 43 51 60 65 122 10 40 19 82 20 93 2 11 12 67 23 125 12
58 24 121 27 140 14 85 67 372 80 437 8 39 17 89 21 110 3 21 7 45 9 53 2 8 7
31 10 50 3 19 14 80 25 135 10 55 21 118 24 140 4 22 8 47 11 55 2 8 6 26 9
40 5 33 55 299 60 326 2 12 7 38 10 57 3 20 28 157 56 304 27 147 52 282 55
298 2 17 7 41 10 55 3 14 12 61 20 105 19 107 25 135 30 165 10 46 15 75 25
130 5 30 12 69 15 85 3 17 7 39 9 50 4 24 74 401 79 430 3 11 10 50 17 88 l12
67 279 0 279 0 -6 -37 c-3 -21 -8 -42 -11 -46 -3 -5 -7 -23 -9 -40 -1 -18 -12
-72 -23 -122 -11 -49 -23 -106 -26 -125 -3 -19 -8 -42 -10 -50 -3 -8 -36 -168
-74 -355 -39 -187 -84 -405 -101 -485 -16 -80 -32 -154 -34 -165 -6 -30 -47
-228 -51 -245 -1 -8 -17 -85 -35 -170 -39 -187 -35 -167 -55 -265 -9 -44 -18
-87 -20 -95 -5 -25 -45 -223 -50 -248 -2 -13 -6 -31 -9 -40 -3 -9 -7 -29 -10
-45 -3 -15 -7 -35 -10 -45 -3 -9 -7 -35 -11 -57 -3 -22 -7 -47 -10 -55 -2 -8
-6 -26 -9 -40 -3 -14 -21 -101 -41 -195 -19 -93 -37 -181 -40 -195 -3 -14 -19
-90 -36 -170 -17 -80 -32 -156 -35 -170 -2 -14 -9 -45 -14 -70 -5 -25 -12 -56
-15 -70 -2 -14 -9 -45 -14 -70 -6 -25 -35 -166 -66 -315 -30 -148 -58 -281
-60 -295 -18 -87 -27 -128 -31 -150 -3 -13 -12 -56 -20 -95 -9 -38 -18 -81
-20 -95 -2 -14 -11 -54 -19 -90 -8 -36 -17 -80 -20 -97 -3 -18 -12 -61 -20
-95 -8 -35 -17 -79 -20 -98 -3 -19 -22 -109 -41 -200 -19 -90 -34 -168 -34
-173 0 -4 -82 -6 -182 -4 -152 2 -189 6 -216 21 -34 18 -132 113 -132 128 0 5
-12 26 -26 47 -14 22 -27 45 -28 53 -2 7 -13 36 -25 63 -28 62 -69 198 -87
290 -8 39 -16 79 -18 90 -32 154 -69 346 -73 370 -2 17 -6 36 -8 43 -3 7 -17
73 -31 145 -14 73 -39 195 -54 273 -16 77 -32 154 -34 170 -3 16 -8 40 -11 53
-2 14 -18 93 -35 176 -41 206 -40 197 -45 225 -2 14 -18 93 -35 175 -17 83
-33 165 -36 184 -7 40 -9 51 -23 111 -5 25 -12 60 -16 78 -3 18 -12 64 -20
102 -8 38 -17 82 -20 97 -3 16 -7 39 -10 53 -3 14 -7 36 -10 50 -2 14 -9 50
-15 80 -6 30 -13 66 -16 80 -3 14 -13 66 -24 115 -10 50 -21 104 -24 121 -3
17 -20 100 -37 185 -17 85 -33 165 -35 179 -3 14 -21 104 -40 200 -20 96 -37
184 -39 195 -1 11 -7 40 -13 65 -6 25 -13 60 -17 78 -3 18 -12 64 -20 102 -8
38 -17 84 -20 102 -3 18 -31 157 -61 308 -31 151 -58 284 -60 295 -2 11 -8 43
-14 70 -5 28 -13 68 -16 90 -3 22 -8 43 -10 46 -2 3 -6 21 -9 40 -3 19 -20
102 -36 184 -17 83 -33 158 -35 168 -12 66 -65 135 -122 163 -20 10 -39 19
-42 19 -105 21 -176 10 -238 -35 -41 -30 -80 -83 -88 -122 -14 -67 -25 -127
-30 -158 -3 -19 -8 -48 -11 -65 -3 -16 -7 -40 -9 -52 -1 -12 -5 -34 -8 -50 -3
-15 -8 -41 -10 -58 -18 -110 -27 -163 -31 -185 -3 -14 -8 -41 -10 -60 -3 -19
-8 -51 -11 -70 -4 -19 -8 -44 -9 -55 -2 -11 -8 -47 -14 -80 -16 -89 -22 -127
-26 -155 -2 -14 -8 -52 -14 -85 -6 -33 -13 -73 -15 -90 -12 -75 -25 -152 -29
-170 -3 -11 -8 -45 -12 -75 -4 -30 -9 -64 -11 -75 -3 -11 -7 -36 -10 -55 -2
-19 -7 -46 -10 -60 -2 -14 -6 -36 -9 -50 -20 -117 -27 -158 -29 -175 -3 -25
-17 -113 -22 -140 -5 -28 -23 -125 -28 -157 -2 -14 -10 -62 -16 -105 -19 -124
-28 -123 -46 7 -2 14 -6 36 -10 50 -3 14 -8 36 -10 50 -3 14 -9 48 -14 75 -14
70 -19 92 -30 155 -12 64 -16 86 -30 155 -5 28 -12 66 -15 85 -3 19 -8 42 -10
50 -2 8 -7 29 -9 45 -10 55 -45 238 -76 400 -17 88 -35 184 -40 213 -5 30 -12
61 -15 71 -2 9 -7 30 -9 46 -3 26 -67 361 -79 420 -3 11 -8 40 -12 65 -4 25
-9 54 -12 65 -2 11 -13 67 -24 125 -11 58 -22 116 -25 130 -16 78 -100 160
-185 179 -60 14 -1170 12 -1224 -1z"/>
<path d="M1878 8195 c-2 -2 -25 -6 -53 -9 -69 -9 -124 -19 -172 -30 -10 -2
-40 -9 -68 -16 -153 -34 -376 -131 -510 -220 -194 -130 -417 -366 -541 -573
-16 -27 -38 -63 -48 -80 -53 -89 -186 -381 -186 -409 0 -8 -4 -18 -9 -23 -5
-6 -14 -26 -19 -45 -6 -19 -27 -89 -47 -155 -31 -106 -95 -368 -109 -450 -3
-16 -14 -81 -26 -143 -11 -63 -22 -135 -25 -160 -3 -26 -7 -58 -9 -72 -3 -14
-7 -52 -10 -85 -3 -33 -8 -82 -11 -110 -23 -216 -30 -394 -30 -780 0 -350 5
-479 22 -690 4 -49 8 -109 8 -132 0 -24 3 -43 6 -43 3 0 6 -23 8 -52 1 -28 4
-54 6 -58 2 -3 6 -30 9 -60 4 -30 8 -66 11 -80 2 -14 11 -70 20 -125 41 -246
143 -631 204 -770 5 -11 19 -45 31 -75 72 -178 220 -427 330 -554 119 -139
151 -159 270 -170 31 -3 101 18 138 40 74 45 130 164 118 253 -7 52 -36 115
-68 151 -226 248 -387 603 -483 1065 -21 102 -24 120 -40 233 -3 20 -7 46 -10
57 -2 11 -7 47 -10 80 -4 33 -8 76 -11 95 -27 209 -39 475 -39 850 0 284 8
548 20 645 2 17 6 62 10 100 8 95 14 154 19 190 3 17 8 53 11 80 10 75 45 272
62 345 8 36 16 73 18 82 13 61 63 229 96 319 21 59 39 112 39 118 0 6 5 11 10
11 6 0 10 8 10 18 0 10 6 26 14 37 7 11 16 31 19 45 3 14 22 51 41 82 18 31
32 59 30 61 -3 2 2 10 11 17 8 7 15 16 15 21 0 31 160 238 246 319 51 48 76
69 153 132 7 6 60 35 118 64 137 70 265 109 423 129 52 6 293 7 330 1 14 -2
47 -7 73 -11 72 -10 76 -11 175 -44 240 -80 424 -225 582 -456 22 -33 40 -65
40 -72 0 -6 4 -13 9 -15 10 -3 123 -228 114 -228 -3 0 -1 -6 5 -13 27 -32 133
-389 157 -527 4 -19 11 -60 16 -90 15 -83 28 -177 35 -250 5 -59 4 -66 -13
-66 -22 -1 -179 -13 -248 -19 -27 -3 -77 -7 -110 -10 -33 -2 -96 -8 -140 -11
-150 -13 -148 -13 -151 21 -1 17 -5 80 -8 140 -4 61 -9 126 -11 145 -2 19 -6
58 -9 85 -13 140 -50 322 -87 436 -117 357 -355 510 -704 453 -91 -14 -193
-55 -261 -104 -97 -70 -94 -67 -158 -153 -93 -127 -171 -317 -212 -522 -11
-57 -34 -185 -40 -220 -3 -22 -7 -51 -9 -65 -2 -14 -7 -52 -10 -85 -4 -33 -9
-73 -11 -90 -2 -16 -6 -68 -10 -115 -3 -47 -7 -103 -9 -125 -15 -175 -20 -490
-20 -1245 0 -761 5 -1056 20 -1265 2 -27 6 -86 10 -130 6 -82 9 -113 26 -250
12 -93 18 -134 24 -155 2 -8 7 -35 10 -60 6 -48 51 -232 64 -265 66 -164 168
-317 275 -415 22 -19 44 -40 50 -45 30 -27 162 -109 213 -131 95 -42 86 -39
200 -69 13 -4 33 -8 45 -11 13 -2 34 -7 48 -10 42 -10 282 -13 340 -4 251 38
490 123 668 236 29 19 55 34 59 34 9 0 191 138 237 179 237 216 401 424 459
584 l22 62 3 915 c3 942 1 1006 -36 1053 -38 48 -96 95 -131 105 -47 14 -123
24 -346 47 -27 3 -94 9 -147 15 -233 24 -296 30 -348 35 -30 3 -74 8 -97 10
-24 3 -62 7 -85 10 -24 2 -70 7 -103 10 -62 6 -95 9 -200 21 -83 10 -213 10
-255 1 -59 -13 -112 -58 -145 -123 l-30 -59 0 -355 c0 -341 1 -357 21 -401 12
-25 35 -60 52 -76 48 -50 70 -59 229 -89 l22 -4 3 -623 3 -622 23 -47 c35 -70
101 -123 174 -138 145 -31 277 53 307 196 9 44 11 243 9 794 -3 726 -3 736
-24 780 -21 45 -38 66 -87 107 -24 20 -145 53 -197 53 -16 0 -20 6 -20 36 0
29 3 34 18 30 9 -3 51 -8 92 -11 41 -3 86 -8 100 -10 14 -2 54 -7 90 -10 36
-3 88 -8 115 -10 28 -3 75 -8 105 -11 30 -3 69 -7 85 -9 17 -2 66 -7 110 -11
44 -4 89 -8 100 -10 11 -1 32 -3 48 -3 l27 -1 0 -749 0 -748 -26 -39 c-69
-103 -247 -288 -357 -372 -78 -60 -175 -118 -268 -160 -64 -30 -239 -94 -249
-92 -3 0 -30 -2 -60 -6 -77 -10 -215 -7 -275 6 -47 10 -143 51 -174 74 -48 36
-152 149 -172 186 -34 65 -66 161 -73 216 -4 27 -9 56 -11 64 -5 17 -12 75
-21 165 -3 33 -7 71 -9 84 -4 23 -13 142 -21 256 -27 443 -27 2155 1 2425 2
19 6 73 10 120 10 129 20 225 39 370 11 81 16 113 21 130 2 8 7 29 10 47 10
61 56 188 88 247 41 74 71 97 134 102 46 4 52 2 68 -22 9 -15 18 -32 19 -38 1
-6 7 -20 13 -31 13 -24 40 -116 48 -165 28 -178 42 -348 50 -622 3 -95 8 -193
11 -218 11 -83 57 -148 139 -196 45 -26 59 -29 140 -29 50 0 126 4 170 8 44 5
105 10 135 13 30 3 78 7 105 10 28 2 75 7 105 9 61 5 154 14 215 20 22 2 76 7
120 10 44 4 96 9 115 10 19 2 73 7 120 10 101 8 112 9 169 25 62 16 131 64
131 90 0 6 4 10 9 10 21 0 46 96 46 175 0 76 -11 221 -19 275 -5 28 -15 104
-22 165 -3 22 -7 47 -9 55 -3 8 -7 35 -10 59 -3 24 -7 47 -9 50 -3 4 -7 25
-10 47 -12 77 -39 196 -78 339 -16 61 -31 115 -32 120 -2 6 -6 17 -9 25 -3 8
-15 44 -27 80 -12 36 -25 74 -30 85 -5 11 -28 65 -51 120 -24 55 -65 138 -91
184 -26 46 -48 86 -48 88 0 3 -8 15 -17 28 -10 12 -25 33 -33 45 -93 139 -259
324 -358 397 -20 16 -39 30 -42 33 -17 19 -168 110 -240 146 -134 66 -318 124
-465 148 -22 4 -56 9 -75 12 -36 7 -416 14 -422 9z"/>
</g>
</svg>
